<svg xmlns="http://www.w3.org/2000/svg" width="32" height="32" viewBox="0 0 32 32">
  <g fill="none" stroke="currentColor" stroke-width="2" stroke-linecap="round" stroke-linejoin="round">
    <path d="M6 28a2 2 0 0 0 2 2h16a2 2 0 0 0 2-2V5a2 2 0 0 0-2-2H8a2 2 0 0 0-2 2v23z"/>
    <path d="M10 12h4M10 17h12M10 21h12M10 25h4"/>
    <path d="M22 9.5
             c-1.7 .8 -2.7 1.9 -3.1 3.4
             c-.4 -1.5 -1.4 -2.6 -3.1 -3.4
             c1.7 -.8 2.7 -1.9 3.1 -3.4
             c.4 1.5 1.4 2.6 3.1 3.4z"/>

  </g>
</svg>
